<svg xmlns="http://www.w3.org/2000/svg" width="1080" height="1080" version="1.0" viewBox="0 0 810 810" zoomAndPan="magnify"><defs><clipPath id="e"><path d="m0 0h601v602h-601z"/></clipPath><clipPath id="a"><path d="m402.21-0.085938c-205.55 0-192.71 89.121-192.71 89.121l0.22656 92.34h196.13v27.719h-274.04s-131.52-14.914-131.52 192.45c0 207.38 114.8 200.03 114.8 200.03h68.508v-96.242s-3.6914-114.79 112.96-114.79h194.54s109.28 1.7734 109.28-105.62v-177.56s16.609-107.46-198.18-107.46zm-108.16 62.09c19.512 0 35.277 15.77 35.277 35.281 0 19.516-15.766 35.285-35.277 35.285-19.516 0-35.289-15.77-35.289-35.285 0-19.512 15.773-35.281 35.289-35.281z"/></clipPath><linearGradient id="f" x1=".004" x2="1.028" y1="-.004" y2="1.012" gradientTransform="matrix(600.39 0 0 601.69 .29686 -.08793)" gradientUnits="userSpaceOnUse"><stop offset="0" stop-color="#387db8"/><stop offset=".125" stop-color="#387db8"/><stop offset=".141" stop-color="#387db7"/><stop offset=".156" stop-color="#387db6"/><stop offset=".172" stop-color="#377cb5"/><stop offset=".188" stop-color="#377cb4"/><stop offset=".203" stop-color="#377bb4"/><stop offset=".219" stop-color="#377bb3"/><stop offset=".234" stop-color="#377ab2"/><stop offset=".25" stop-color="#377ab1"/><stop offset=".266" stop-color="#3779b0"/><stop offset=".281" stop-color="#3779af"/><stop offset=".297" stop-color="#3778ae"/><stop offset=".313" stop-color="#3778ad"/><stop offset=".328" stop-color="#3777ad"/><stop offset=".344" stop-color="#3777ac"/><stop offset=".359" stop-color="#3776ab"/><stop offset=".375" stop-color="#3776aa"/><stop offset=".391" stop-color="#3775a9"/><stop offset=".406" stop-color="#3775a8"/><stop offset=".422" stop-color="#3774a7"/><stop offset=".438" stop-color="#3774a7"/><stop offset=".453" stop-color="#3773a6"/><stop offset=".469" stop-color="#3773a5"/><stop offset=".484" stop-color="#3672a4"/><stop offset=".494" stop-color="#3672a3"/><stop offset=".5" stop-color="#3671a3"/><stop offset=".506" stop-color="#3671a2"/><stop offset=".516" stop-color="#3671a2"/><stop offset=".531" stop-color="#3671a1"/><stop offset=".547" stop-color="#3670a0"/><stop offset=".563" stop-color="#3670a0"/><stop offset=".578" stop-color="#366f9f"/><stop offset=".594" stop-color="#366f9e"/><stop offset=".609" stop-color="#366e9d"/><stop offset=".625" stop-color="#366e9c"/><stop offset=".641" stop-color="#366d9b"/><stop offset=".656" stop-color="#366d9a"/><stop offset=".672" stop-color="#366c9a"/><stop offset=".688" stop-color="#366c99"/><stop offset=".703" stop-color="#366b98"/><stop offset=".719" stop-color="#366b97"/><stop offset=".734" stop-color="#366a96"/><stop offset=".75" stop-color="#366a95"/><stop offset=".766" stop-color="#366994"/><stop offset=".781" stop-color="#366994"/><stop offset=".813" stop-color="#366993"/><stop offset=".875" stop-color="#366993"/><stop offset="1" stop-color="#366993"/></linearGradient><clipPath id="c"><path d="m209 203h601v602.5h-601z"/></clipPath><clipPath id="b"><path d="m408.04 805.28c205.53 0 192.69-89.141 192.69-89.141l-0.22266-92.344h-196.14v-27.703h274.04s131.54 14.898 131.54-192.45c0-207.38-114.8-200.02-114.8-200.02h-68.508v96.227s3.6758 114.8-112.96 114.8h-194.56s-109.29-1.7734-109.29 105.62v177.55s-16.594 107.46 198.21 107.46zm108.14-62.102c-19.5 0-35.285-15.785-35.285-35.281 0-19.527 15.785-35.281 35.285-35.281 19.527 0 35.285 15.754 35.285 35.281 0 19.496-15.758 35.281-35.285 35.281z"/></clipPath><linearGradient id="d" x1="-.033" x2="1.014" y1="-.006" y2=".985" gradientTransform="matrix(600.4 0 0 601.7 209.54 203.58)" gradientUnits="userSpaceOnUse"><stop offset="0" stop-color="#ffdf52"/><stop offset=".125" stop-color="#ffdf52"/><stop offset=".188" stop-color="#ffdf52"/><stop offset=".219" stop-color="#ffdf51"/><stop offset=".234" stop-color="#ffdf51"/><stop offset=".25" stop-color="#ffde50"/><stop offset=".266" stop-color="#ffde4f"/><stop offset=".281" stop-color="#ffdd4f"/><stop offset=".297" stop-color="#ffdc4e"/><stop offset=".313" stop-color="#ffdc4d"/><stop offset=".328" stop-color="#ffdb4c"/><stop offset=".344" stop-color="#ffda4c"/><stop offset=".359" stop-color="#ffda4b"/><stop offset=".375" stop-color="#ffd94a"/><stop offset=".391" stop-color="#ffd849"/><stop offset=".406" stop-color="#ffd849"/><stop offset=".422" stop-color="#ffd748"/><stop offset=".438" stop-color="#ffd647"/><stop offset=".453" stop-color="#ffd646"/><stop offset=".469" stop-color="#ffd546"/><stop offset=".483" stop-color="#ffd445"/><stop offset=".484" stop-color="#ffd445"/><stop offset=".5" stop-color="#ffd444"/><stop offset=".516" stop-color="#ffd343"/><stop offset=".517" stop-color="#ffd243"/><stop offset=".531" stop-color="#ffd242"/><stop offset=".547" stop-color="#ffd242"/><stop offset=".563" stop-color="#ffd141"/><stop offset=".578" stop-color="#ffd040"/><stop offset=".594" stop-color="#ffd040"/><stop offset=".609" stop-color="#ffcf3f"/><stop offset=".625" stop-color="#ffce3e"/><stop offset=".641" stop-color="#ffce3d"/><stop offset=".656" stop-color="#ffcd3d"/><stop offset=".672" stop-color="#ffcc3c"/><stop offset=".688" stop-color="#ffcc3b"/><stop offset=".703" stop-color="#ffcb3a"/><stop offset=".719" stop-color="#ffca3a"/><stop offset=".734" stop-color="#ffca39"/><stop offset=".75" stop-color="#ffc938"/><stop offset=".766" stop-color="#ffc837"/><stop offset=".781" stop-color="#ffc836"/><stop offset=".797" stop-color="#ffc736"/><stop offset=".813" stop-color="#ffc735"/><stop offset=".828" stop-color="#ffc634"/><stop offset=".844" stop-color="#ffc533"/><stop offset=".859" stop-color="#ffc533"/><stop offset=".875" stop-color="#ffc432"/><stop offset=".891" stop-color="#ffc331"/><stop offset=".906" stop-color="#ffc331"/><stop offset=".938" stop-color="#ffc330"/><stop offset="1" stop-color="#ffc330"/></linearGradient></defs><g clip-path="url(#e)"><g clip-path="url(#a)"><path fill="url(#f)" d="m0.29688 0v608.93h616.7v-608.93z"/></g></g><g clip-path="url(#c)"><g clip-path="url(#b)"><path fill="url(#d)" d="m193.24 196.26v609.02h616.7v-609.02z"/></g></g></svg>