<svg xmlns="http://www.w3.org/2000/svg" id="Layer_1" version="1.1" viewBox="0 0 204 146.6"><defs><style>.st0{fill:#1d1c1b}</style></defs><rect width="64.3" height="8.7" x="43.9" y="50.3" class="st0" rx="2.6" ry="2.6"/><rect width="35.3" height="8.7" y="50.3" class="st0" rx="2.6" ry="2.6"/><rect width="40.3" height="8.7" x="124.1" y="50.3" class="st0" rx="2.6" ry="2.6"/><rect width="34.5" height="8.7" x="129.9" y="37.8" class="st0" rx="2.6" ry="2.6"/><rect width="27.3" height="8.7" x="168.9" y="37.8" class="st0" rx="2.6" ry="2.6"/><rect width="31.1" height="8.7" x="157.3" y="25" class="st0" rx="2.6" ry="2.6"/><rect width="9.2" height="8.7" x="167.1" y="12.5" class="st0" rx="2.6" ry="2.6"/><rect width="15.9" height="9" x="74.3" y="112.6" class="st0" rx="2.6" ry="2.6"/><rect width="10.4" height="9" x="101.8" y="112.6" class="st0" rx="2.6" ry="2.6"/><rect width="28" height="9" x="117" y="112.6" class="st0" rx="2.6" ry="2.6"/><rect width="11.6" height="9" x="131" y="100.1" class="st0" rx="2.6" ry="2.6"/><rect width="9.2" height="9" x="52.4" y="112.6" class="st0" rx="2.6" ry="2.6"/><path d="M94.7,127.7c0-1.4,1.1-2.6,2.6-2.6h4c1.4,0,2.6,1.1,2.6,2.6v3.9c0,1.4-1.1,2.6-2.6,2.6h-4c-1.4,0-2.6-1.1-2.6-2.6v-3.9Z" class="st0"/><rect width="8.7" height="9" x="85.8" y="137.6" class="st0" rx="2.6" ry="2.6"/><rect width="11.4" height="8.7" x="120.4" class="st0" rx="2.6" ry="2.6"/><rect width="29" height="8.7" x="55.8" y="37.8" class="st0" rx="2.6" ry="2.6"/><rect width="17.6" height="8.7" x="109.7" y="12.5" class="st0" rx="2.6" ry="2.6"/><rect width="28.5" height="8.7" x="98.8" y="25" class="st0" rx="2.6" ry="2.6"/><rect width="16.6" height="8.7" x="187.4" y="50.3" class="st0" rx="2.6" ry="2.6"/><rect width="82.1" height="8.7" x="30.6" y="62.8" class="st0" rx="2.6" ry="2.6"/><rect width="32.1" height="8.7" x="105.1" y="87.8" class="st0" rx="2.6" ry="2.6"/><rect width="104.3" height="8.7" x="43.9" y="75.3" class="st0" rx="2.6" ry="2.6"/><rect width="38.8" height="8.7" x="27.9" y="87.8" class="st0" rx="2.6" ry="2.6"/><rect width="12.7" height="9" x="63.3" y="100.1" class="st0" rx="2.6" ry="2.6"/><rect width="13.7" height="9" x="108.1" y="100.1" class="st0" rx="2.6" ry="2.6"/><rect width="12.9" height="9" x="39.8" y="100.1" class="st0" rx="2.6" ry="2.6"/><rect width="33.1" height="8.7" x="124.1" y="62.8" class="st0" rx="2.6" ry="2.6"/></svg>